<?xml version="1.0" standalone="no"?>
<!DOCTYPE svg PUBLIC "-//W3C//DTD SVG 20010904//EN"
 "http://www.w3.org/TR/2001/REC-SVG-20010904/DTD/svg10.dtd">
<svg version="1.0" xmlns="http://www.w3.org/2000/svg"
 width="900.000000pt" height="900.000000pt" viewBox="0 0 900.000000 900.000000"
 preserveAspectRatio="xMidYMid meet">

<g transform="translate(0.000000,900.000000) scale(0.100000,-0.100000)"
fill="#000000" stroke="none">
<path d="M4393 8425 c-62 -15 -99 -34 -405 -206 -128 -72 -332 -187 -453 -254
-121 -67 -238 -132 -260 -145 -22 -12 -94 -53 -160 -90 -66 -37 -138 -78 -160
-90 -22 -13 -119 -67 -215 -120 -96 -54 -193 -108 -215 -120 -22 -12 -114 -64
-205 -115 -91 -51 -239 -134 -330 -185 -91 -51 -262 -147 -380 -213 -118 -66
-270 -150 -336 -188 -200 -111 -221 -127 -278 -215 -59 -90 -56 11 -56 -1979
0 -2002 -3 -1886 59 -1983 53 -83 77 -101 331 -243 324 -181 1081 -605 1470
-824 80 -45 244 -137 365 -205 121 -68 285 -160 365 -205 80 -45 222 -124 315
-177 94 -52 186 -104 205 -115 285 -161 327 -181 408 -189 112 -12 176 11 422
149 190 107 392 221 635 357 121 68 285 160 365 205 249 140 743 417 1110 623
186 104 462 259 565 317 22 13 83 46 135 75 223 123 271 161 323 252 53 92 51
23 51 1947 1 1379 -2 1809 -11 1855 -31 150 -113 239 -329 357 -178 98 -451
250 -704 392 -69 39 -143 80 -165 93 -142 78 -1017 566 -1205 672 -95 53 -297
166 -335 187 -236 131 -503 280 -555 310 -141 81 -243 100 -367 70z m292
-1305 c528 -38 1046 -241 1465 -576 109 -87 307 -285 394 -394 96 -121 221
-310 210 -319 -5 -4 -262 -152 -571 -329 l-562 -320 -58 81 c-122 176 -332
346 -536 435 -836 367 -1782 -215 -1834 -1126 -33 -593 337 -1132 902 -1317
556 -182 1181 36 1497 522 l40 61 31 -18 c28 -15 221 -122 976 -537 74 -40
137 -75 139 -78 6 -6 -42 -87 -117 -195 -424 -614 -1084 -1015 -1831 -1116
-169 -23 -491 -23 -660 0 -510 69 -967 270 -1360 598 -281 236 -499 515 -665
853 -279 567 -345 1192 -190 1805 87 343 273 714 501 1000 87 109 285 307 394
394 296 236 679 425 1035 509 279 66 522 87 800 67z m1503 -2244 l2 -186 188
-2 187 -3 0 -185 0 -185 -187 -3 -188 -2 -2 -186 -3 -185 -185 0 -185 0 -3
185 -2 186 -188 2 -187 3 0 185 0 185 188 3 187 2 0 184 c0 100 2 185 4 187 2
2 87 3 188 2 l183 -2 3 -185z m1310 -1 l2 -185 190 0 190 0 0 -190 0 -190
-190 0 -190 0 -2 -185 -3 -186 -185 0 -185 0 -3 186 -2 185 -185 0 -185 0 0
190 0 190 185 0 185 0 0 183 c0 101 2 186 4 188 2 2 87 3 188 2 l183 -2 3
-186z"/>
</g>
</svg>
