<?xml version="1.0" standalone="no"?>
<!DOCTYPE svg PUBLIC "-//W3C//DTD SVG 20010904//EN"
 "http://www.w3.org/TR/2001/REC-SVG-20010904/DTD/svg10.dtd">
<svg version="1.0" xmlns="http://www.w3.org/2000/svg"
 width="1200.000000pt" height="1326.000000pt" viewBox="0 0 1200.000000 1326.000000"
 preserveAspectRatio="xMidYMid meet">

<g transform="translate(0.000000,1326.000000) scale(0.100000,-0.100000)"
fill="#000000" stroke="none">
<path d="M10822 9466 c-551 -315 -1010 -580 -1020 -588 -23 -21 -1899 -1090
-1934 -1103 -49 -18 -3817 -2170 -3818 -2180 0 -5 30 -57 66 -115 313 -501
785 -850 1340 -989 197 -50 326 -65 544 -65 211 0 342 15 530 61 538 131 1032
484 1326 948 26 42 53 74 59 71 22 -8 1910 -1048 1919 -1056 10 -10 -17 -58
-130 -233 -503 -771 -1228 -1362 -2088 -1701 -492 -195 -969 -290 -1516 -303
-1098 -26 -2123 339 -2970 1056 -369 313 -730 746 -961 1153 -27 49 -49 76
-57 73 -7 -3 -463 -262 -1014 -575 -550 -314 -1002 -570 -1003 -568 -2 2 -15
23 -30 48 -35 60 -22 12 19 -65 42 -80 153 -195 240 -249 131 -81 5320 -2989
5391 -3021 101 -47 166 -60 290 -60 122 1 209 22 317 76 86 44 5271 2954 5353
3004 138 86 240 215 293 370 l27 80 0 3090 c0 2923 -1 3094 -18 3155 -9 36
-31 92 -47 125 -29 59 -85 136 -98 134 -4 0 -458 -258 -1010 -573z"/>
</g>
</svg>
